<svg xmlns:xlink="http://www.w3.org/1999/xlink" xmlns="http://www.w3.org/2000/svg" width="20.001" height="18" viewBox="0 0 20.001 18">
  <path id="Path_6363" d="M15398.183,4145a5,5,0,0,1-3.721-1.6,5.738,5.738,0,0,1-1.462-3.934v-5.934a5.745,5.745,0,0,1,1.462-3.934,5,5,0,0,1,3.721-1.6h8.618a5.261,5.261,0,0,1,5.19,5.531v5.891a5.265,5.265,0,0,1-5.2,5.578Zm-3.74-11.469v5.934a3.8,3.8,0,0,0,3.74,4.092h8.6a3.827,3.827,0,0,0,3.768-4.092l0-5.976a3.864,3.864,0,0,0-1.021-2.831,3.825,3.825,0,0,0-2.75-1.215h-8.6A3.8,3.8,0,0,0,15394.442,4133.532Zm6.521,4.042-.155-.112-3.926-3.122a.722.722,0,0,1,.809-1.191l.089.062,3.922,3.118a1.313,1.313,0,0,0,1.5.081l.112-.078,3.895-3.121a.722.722,0,0,1,.979,1.056l-.078.074-3.9,3.125a2.758,2.758,0,0,1-3.245.108Z" transform="translate(-15392.5 -4127.501)" fill="#FFFFFF" stroke="#000000" stroke-width="1" stroke-opacity="0"></path>
</svg>