<svg xmlns:xlink="http://www.w3.org/1999/xlink" xmlns="http://www.w3.org/2000/svg" width="19" height="19" viewBox="0 0 19 19"><path d="M12.418,18.459a24.2,24.2,0,0,1-6.829-5.072A23.407,23.407,0,0,1,.553,6.54l-.1-.227a3.714,3.714,0,0,1,.1-3.777C1.179,1.5,2.888,0,4.156,0l.071,0,.027,0A2.13,2.13,0,0,1,5.57.677L5.691.8A15.141,15.141,0,0,1,8.014,4.044l.024.084A2.32,2.32,0,0,1,7.6,5.945l-.1.183c-.191.351-.227.5-.166.678a8.468,8.468,0,0,0,4.775,4.815.5.5,0,0,0,.179.034,1.409,1.409,0,0,0,.646-.261l.236-.134a2.367,2.367,0,0,1,1.192-.385,2.087,2.087,0,0,1,.436.049,12.868,12.868,0,0,1,3.077,2.148l.26.241.093.092a2.144,2.144,0,0,1,.673,1.358c.044,1.251-1.47,3.077-2.474,3.651A3.1,3.1,0,0,1,14.574,19,5.147,5.147,0,0,1,12.418,18.459ZM4.149,1.391l-.082,0a5.072,5.072,0,0,0-2.359,1.91l-.074.11a2.737,2.737,0,0,0,.188,2.574l.1.232A23.237,23.237,0,0,0,6.7,12.534a22.673,22.673,0,0,0,6.275,4.653l.2.09a3.526,3.526,0,0,0,1.371.327,1.884,1.884,0,0,0,1.133-.358l.048-.031a7.194,7.194,0,0,0,1.019-.975,2.718,2.718,0,0,0,.774-1.395.855.855,0,0,0-.273-.459l-.077-.076a18.875,18.875,0,0,0-2.656-2.025.585.585,0,0,0-.118-.013,1.554,1.554,0,0,0-.717.294l-.233.132a2.355,2.355,0,0,1-1.14.356,2.023,2.023,0,0,1-.7-.136A9.861,9.861,0,0,1,6.045,7.305a2.129,2.129,0,0,1,.327-2l.106-.187c.2-.362.246-.522.207-.711A19.162,19.162,0,0,0,4.769,1.844L4.6,1.672l-.087-.08A.9.9,0,0,0,4.2,1.4ZM14.365,7.585a3.385,3.385,0,0,0-2.677-2.692.7.7,0,0,1,.08-1.376h.091l.093.012a4.764,4.764,0,0,1,3.771,3.791.7.7,0,0,1-.546.816.691.691,0,0,1-.811-.55Zm3.257-.063a6.735,6.735,0,0,0-1.911-3.989,6.661,6.661,0,0,0-3.967-1.915A.7.7,0,0,1,11.711.24L11.8.232l.094,0A8.045,8.045,0,0,1,16.688,2.55,8.131,8.131,0,0,1,19,7.366a.7.7,0,0,1-.61.769c-.026,0-.052,0-.078,0A.691.691,0,0,1,17.622,7.522Z" fill="#FFFFFF"></path></svg>