<svg xmlns:xlink="http://www.w3.org/1999/xlink" xmlns="http://www.w3.org/2000/svg" width="22.001" height="18.001" viewBox="0 0 22.001 18.001">
  <path id="Path_6364" d="M15397.143,4146a4.139,4.139,0,0,1-4.144-4.12v-2.669a.772.772,0,0,1,.771-.77,1.45,1.45,0,0,0,1.458-1.439,1.377,1.377,0,0,0-1.458-1.354l-.1-.008a.772.772,0,0,1-.666-.766v-2.754a4.139,4.139,0,0,1,4.144-4.12h13.715a4.138,4.138,0,0,1,4.143,4.12v2.669a.781.781,0,0,1-.224.545.757.757,0,0,1-.542.225,1.441,1.441,0,1,0,0,2.882.771.771,0,0,1,.766.77v2.669a4.135,4.135,0,0,1-4.143,4.12Zm13.715-1.543a2.6,2.6,0,0,0,2.607-2.577v-2l-.082-.023a2.983,2.983,0,0,1-2.139-2.685l-.008-.174a2.963,2.963,0,0,1,2.146-2.863l.082-.023v-2a2.6,2.6,0,0,0-2.437-2.573l-.17,0h-4.194v1.977a.769.769,0,0,1-1.531.1l-.008-.1v-1.977h-7.981a2.6,2.6,0,0,0-2.607,2.581v2.074l.085.023a2.862,2.862,0,0,1,2.14,2.607l0,.174a2.959,2.959,0,0,1-2.147,2.859l-.081.023v2a2.6,2.6,0,0,0,2.434,2.573l.174,0h7.981v-1.532a.769.769,0,0,1,1.531-.1l.008.1v1.532Zm-5.726-4.964-.008-.1v-4.956a.769.769,0,0,1,1.531-.1l.008.1v4.956a.769.769,0,0,1-1.531.1Z" transform="translate(-15392.999 -4127.999)" fill="#FFFFFF"></path>
</svg>